<svg xmlns="http://www.w3.org/2000/svg" xmlns:xlink="http://www.w3.org/1999/xlink" width="725" height="208" viewBox="0 0 725 208">
  <defs>
  <style>
  @import url('https://fonts.googleapis.com/css2?family=Asap');
</style>  
    <clipPath id="clip-callbanner100">
      <rect width="725" height="208"/>
    </clipPath>
  </defs>
  <g id="callbanner100" clip-path="url(#clip-callbanner100)">
    <rect width="725" height="208" fill="#fff"/>
    <rect id="Rectangle_2" data-name="Rectangle 2" width="725" height="185" transform="translate(0 23)" fill="#141c3a"/>
    <rect id="Rectangle_3" data-name="Rectangle 3" width="215" height="37.147" rx="12" transform="translate(250.5 7)" fill="#fff"/>
    <g id="Ellipse_1" data-name="Ellipse 1" transform="translate(329.5 64.5)" fill="#e40044" stroke="#fff" stroke-width="5">
      <circle cx="33" cy="33" r="33" stroke="none"/>
      <circle cx="33" cy="33" r="30.5" fill="none"/>
    </g>
    <path id="Icon_ionic-ios-call" data-name="Icon ionic-ios-call" d="M30.72,25.65a22.686,22.686,0,0,0-4.739-3.171c-1.42-.682-1.941-.668-2.946.056-.837.6-1.378,1.167-2.341.956s-2.862-1.645-4.7-3.48-3.277-3.741-3.48-4.7.359-1.5.956-2.341c.724-1.005.745-1.526.056-2.946A22.238,22.238,0,0,0,10.35,5.28c-1.034-1.034-1.266-.809-1.835-.6a10.443,10.443,0,0,0-1.68.893A5.069,5.069,0,0,0,4.816,7.7c-.4.865-.865,2.475,1.5,6.68a37.272,37.272,0,0,0,6.553,8.74h0l.007.007.007.007h0a37.418,37.418,0,0,0,8.74,6.553c4.2,2.362,5.815,1.9,6.68,1.5a4.983,4.983,0,0,0,2.13-2.018,10.443,10.443,0,0,0,.893-1.68C31.528,26.916,31.76,26.684,30.72,25.65Z" transform="translate(344.505 79.494)" fill="#fff"/>
    <text id="_7310444123" data-name="7310444123" transform="translate(302.5 157.25)" fill="#fff" font-size="20" font-family="SFProDisplay-Bold, SF Pro Display" font-weight="700"><tspan x="0" y="0">7310444123</tspan></text>
    <line id="Line_1" data-name="Line 1" x2="155" transform="translate(285 169)" fill="none" stroke="#e40044" stroke-width="1"/>
    <path id="Path_1" data-name="Path 1" d="M0,0H67" transform="translate(329 169)" fill="none" stroke="#e40044" stroke-width="5"/>
    <rect id="Rectangle_1" data-name="Rectangle 1" width="191" height="33" rx="12" transform="translate(263 7)" fill="#e40044"/>
    <text id="Get_Phone_Support" data-name="Get Phone Support" transform="translate(272 31)" fill="#fff" font-size="20" font-family="SFProDisplay-Bold, SF Pro Display" font-weight="700"><tspan x="0" y="0">Get Phone Support</tspan></text>
    <path id="Polygon_1" data-name="Polygon 1" d="M7.5,0,15,15H0Z" transform="translate(370 57.75) rotate(180)" fill="#fff"/>
  </g>
</svg>
