<svg id="Group_2" data-name="Group 2" xmlns="http://www.w3.org/2000/svg" xmlns:xlink="http://www.w3.org/1999/xlink" width="873.53" height="801.417" viewBox="0 0 873.53 801.417">
  <defs>
  <style>
  @import url('https://fonts.googleapis.com/css2?family=Asap');
</style>  
    <linearGradient id="linear-gradient" x1="0.5" y1="1" x2="0.5" gradientUnits="objectBoundingBox">
      <stop offset="0" stop-color="gray" stop-opacity="0.251"/>
      <stop offset="0.54" stop-color="gray" stop-opacity="0.122"/>
      <stop offset="1" stop-color="gray" stop-opacity="0.102"/>
    </linearGradient>
  </defs>
  <path id="Path_1" data-name="Path 1" d="M531.591,174.63c47.88-1.66,93.48-17.11,137-34S755.291,105,802.021,96c30.06-5.76,64.43-6.58,88.65,9.53,23.3,15.51,30.84,42.28,34.88,67.12,3,18.69,4.84,38.36-3.51,55.85-5.79,12.15-16.08,22.36-23.19,34-24.76,40.48-7.26,90.4,19.57,129.93,12.58,18.54,27.18,36.23,36.89,56s14.21,42.35,5.71,62.49c-8.42,20-28.49,34.94-50.23,45.49-44.16,21.41-96.19,27.54-146.93,31-112.32,7.68-225.23,4.36-337.85,1-41.67-1.24-83.53-2.49-124.53-8.93-22.77-3.58-46.28-9.26-62.81-23-21-17.41-26.18-46.88-12.12-68.71,23.59-36.61,88.79-45.71,105.28-85,9.07-21.63-.25-45.72-13.43-65.77-28.29-43-75.7-80.78-78.2-130-1.72-33.77,21.08-67.6,56.32-83.59,36.94-16.75,88.17-14.64,115.42,13.09C440,165.12,489.321,176.1,531.591,174.63Z" transform="translate(-147.411 -49.303)" fill="#e40044" opacity="0.11"/>
  <ellipse id="Ellipse_1" data-name="Ellipse 1" cx="303.97" cy="41.12" rx="303.97" ry="41.12" transform="translate(175.31 719.177)" fill="#e40044" opacity="0.1"/>
  <path id="Path_2" data-name="Path 2" d="M347.241,258.88s9.41-18.57,8.14-24.09S362,217.48,362,217.48l-.51-19.56s1.09,2,6.77,3.75c.48-.63,1-1.25,1.54-1.84a40.32,40.32,0,0,1,6.82-5.69l10-21.58,9.67-14.81s15.25-31,31-37.84l2.48-4.85a.38.38,0,0,1-.15-.49l2.52-4.93a.39.39,0,0,1,.49-.18l2.41-4.72a37.91,37.91,0,0,1,7-16.89c.25-.35.52-.67.78-1l-3.92-.14c-3.44-.13-7.28-.43-9.59-3a8.769,8.769,0,0,1-1.79-3.3,14,14,0,0,1-.58-2.93c0-.15,0-.3,0-.44V74.6a8.046,8.046,0,0,1,.17-1,.688.688,0,0,1,.08-.39,11.64,11.64,0,0,1,.31-1.16,1.551,1.551,0,0,0,.07-.23c.14-.4.29-.8.46-1.19a1.115,1.115,0,0,0,.07-.16c.18-.39.38-.77.59-1.14l.06-.12h0a4.006,4.006,0,0,1,.25-.45c2.71-4.26,7.47-6.75,12-9a138.684,138.684,0,0,1,13-6,70,70,0,0,1,51,.72,20.19,20.19,0,0,1,4.54,2.42,23.461,23.461,0,0,1,4.95,5.82l7.75,11.45a16.18,16.18,0,0,1,2.51,4.62c1.45,5.44-3.1,10.89-2.59,16.5.26,2.79,1.76,5.35,2.05,8.14.37,3.6-1.3,7.07-2.93,10.32l-11.09,22c.59,2.89,1.24,5.85,1.95,8.71h0c5.11,5.28,6.83,8.16,7.3,9.72l.15.08h0a9,9,0,0,1,2.56,2.5L532.691,167s18.32,4.76,22.13,10.79c0,0,28.75-1.26,28.5,38.89,0,0,1.27,15.06,2,17.07s0,22.33,0,22.33l.34,41.16s1.1,21.83,0,29.61-2.37,37.39-2.37,37.39-6.87,28.86-4.33,39.15c2.44,9.85,0,31.39-4,31.48-.76,1.57-1.63,2.34-2.58,1.9a11.014,11.014,0,0,0-1.27-.46V460.9s4.95,34.45-.6,41c3.68,5.24,8,14.18,9.1,16.53l38.9-2.09,4.95,1.39h0L628,519l2.75,63.27-1.1.08.08,1.93-2.6.19,3.62,63.72-53.85,4.43c2.37,5.31,5.12,11,6.19,11.55,2,1,6.36-2,7.38-.76s4.07,2.76,7.63,2,5.85,3.26,5.85,3.26-.52.46-1.3,1.31c5.78-.7,13.09,2.4,17.06,4.4,1.78.9,2.89,1.57,2.89,1.57h10.5l-5.77,36.81-4.07,2.78-1,29s-16.28,50.19-23.74,49.86a3.37,3.37,0,0,1-2.51-1.26c-4-4.62-1.23-20.49-1.23-20.49V746.23s-6.1-2.68-5.42-4.69-9.84-24-10.78-26a.17.17,0,0,1-.08-.16c0-2.26-4.58-4.77-4.32-5.77s-11.2-7.28-12-12.8-8.39-2.51-8.39-2.51l-9.66-11.1c-.29,13.53-.84,23-1.79,25.4-4.58,11.55-6.36,29.62-6.36,29.62s2.8,13.8,0,18.32c-1.72,2.76-5.72,5.72-8.5,8.17,2.89,8.76,2.48,27.38,2.48,27.38v10.7l-21.37,6s-.67-5.35-1.69-5.35-14.59,10.37-14.59,10.37-52.24.67-65.46,0c-5-.25-6.36-2.4-5.59-5,1.27-4.33,8.4-9.94,14.74-10.37,10.18-.67,23.07-11.37,23.07-11.37s-1-2.35,4.41-5.69c3.74-2.3,14.09-11.61,20.49-17.06-.3-.41-.61-.82-.9-1.26,0,0,8.65-12,6.86-17.32s.77-13,.77-13,4.83-14.81,4.83-22.34c0-4.77.72-31.9,1.24-51.14l-4.46.37-.09-1.92-2,.18-18.91,1.74.58-20.21c-9.11-4-16.69-7.71-19.83-10.08-10.68-8-19.84-8.53-19.84-8.53s-21.62-11.54-24.93-16.31-3-39.4-3-39.4l1.78-74.22v-.06s1.52-35.88,4.58-43.66c1.12-2.88,3.89-12.48,6.92-23.44a18.109,18.109,0,0,0-5.22.22c-.11,2.68-.18,4.52-.18,5.15,0,4.26-6.1,7.88-6.1,7.88l4.32-96V275.66c-13.32,4.24-45.53,5.56-45.53,5.56C341.651,280,347.241,258.88,347.241,258.88Zm125.64-82.48h.07a66.591,66.591,0,0,0-1.85-7.45ZM560.3,505.67c-7.89,1.3-17,.92-17.69-.61-.07-.15-.16-.42-.28-.77-.25.44-.49.89-.74,1.35l.77,14.48v.33l26-1.4C566.541,511.3,563.1,507.52,560.3,505.67Zm-86.67,73.06.67-23.45c-1.16-4.32-2.2-8.24-3.09-11.6-.4,2.79-.74,5.36-1,7.73C467.751,573.66,471.381,578,473.631,578.73Zm-74-351.58c1.49.57,7.16-3,12.54-6.7,0-.68-.05-1.35-.08-2-.76-15.31,24.17-24.84,31.8-26.6a27.41,27.41,0,0,0,5.36-2,125,125,0,0,0,11.84-6.69l-.1-.29s9.84-6.23,10.05-14a132.925,132.925,0,0,0-8.46-20.53c-.19-.39-.4-.8-.6-1.19a39.25,39.25,0,0,1-12.8-6.78c-1.53,20-30.47,37.21-30.47,37.21l-3.09,5-.73,1.18c1.56.92,2.31,1.66,1.78,2.09-2.2,1.76-7.52,11.72-9.72,15.93-.6,1.14-1,1.85-1,1.85s-4.73,12.87-7.44,23.64a2,2,0,0,1,1.14-.12Z" transform="translate(57.019 -49.303)" fill="url(#linear-gradient)"/>
  <path id="Path_3" data-name="Path 3" d="M529.787,175.28l.34.45,1.16,1.55L553.537,193l4.72-7.76,3-5s44.35-26.6,25.28-52.24-47.25,32.5-47.25,32.5Z" transform="translate(-84.317 -49.303)" fill="#ffc5d3"/>
  <rect id="Rectangle_2" data-name="Rectangle 2" width="0.76" height="6.26" rx="0.38" transform="translate(488.251 68.932) rotate(-153.27)" fill="#3a3768"/>
  <rect id="Rectangle_3" data-name="Rectangle 3" width="0.43" height="2.06" rx="0.21" transform="translate(514.878 72.145) rotate(-153.27)" fill="#3a3768"/>
  <rect id="Rectangle_4" data-name="Rectangle 4" width="0.48" height="3.59" rx="0.24" transform="translate(512.51 76.883) rotate(-153.27)" fill="#3a3768"/>
  <rect id="Rectangle_5" data-name="Rectangle 5" width="0.46" height="3.62" rx="0.23" transform="translate(510.318 81.233) rotate(-153.27)" fill="#3a3768"/>
  <rect id="Rectangle_6" data-name="Rectangle 6" width="25.4" height="51.62" rx="2.24" transform="translate(495.444 110.214) rotate(-153.27)" fill="#3a3768"/>
  <path id="Path_4" data-name="Path 4" d="M545.7,105.67a.9.9,0,0,1,.4,1.22l-.08.17a.91.91,0,0,0,.4,1.23l9.62,4.84a.9.9,0,0,0,1.22-.4l.09-.17a.91.91,0,0,1,1.22-.41l1.87.95a1.72,1.72,0,0,1,.77,2.33L540.774,156a1.75,1.75,0,0,1-2.34.77l-16.78-8.45a1.75,1.75,0,0,1-.77-2.34l20.45-40.59a1.74,1.74,0,0,1,2.34-.77Z" transform="translate(-45.334 -49.303)" fill="#e40044"/>
  <rect id="Rectangle_7" data-name="Rectangle 7" width="3.55" height="0.72" rx="0.36" transform="translate(508.483 61.516) rotate(-153.27)" fill="#e6e8ec"/>
  <ellipse id="Ellipse_2" data-name="Ellipse 2" cx="0.41" cy="0.41" rx="0.41" ry="0.41" transform="translate(504.24 58.737)" fill="#e6e8ec"/>
  <path id="Path_5" data-name="Path 5" d="M563.435,261.28,569.685,429s-21-7-24.25-1.75,3.5-84,3.5-84Z" transform="translate(-77.465 -49.303)" fill="#5f5570"/>
  <path id="Path_6" data-name="Path 6" d="M563.435,261.28,569.685,429s-21-7-24.25-1.75,3.5-84,3.5-84Z" transform="translate(-77.465 -49.303)" opacity="0.15"/>
  <path id="Path_7" data-name="Path 7" d="M456.137,814.11c13,.67,64.33,0,64.33,0s13.34-10.33,14.34-10.33,1.66,5.33,1.66,5.33l21-6V792.45s.67-30.35-5.66-31.67-34.34,0-34.34,0c-1-.33-20,17.67-25.33,21s-4.33,5.67-4.33,5.67-12.67,10.66-22.67,11.33c-6.23.42-13.24,6-14.49,10.33C449.887,811.72,451.237,813.86,456.137,814.11Z" transform="translate(28.833 -49.303)" fill="#bc8487"/>
  <path id="Path_8" data-name="Path 8" d="M456.158,814.11c13,.67,64.33,0,64.33,0s13.34-10.33,14.34-10.33,1.66,5.33,1.66,5.33l21-6V792.66l-19.66,7.12-15.67,9.33h-71.49C449.908,811.72,451.258,813.86,456.158,814.11Z" transform="translate(28.813 -49.303)" opacity="0.1"/>
  <path id="Path_9" data-name="Path 9" d="M520.13,798.45s-16-15.33-26.7-11" transform="translate(23.21 -49.303)" stroke="#000" stroke-miterlimit="10" stroke-width="1" opacity="0.1"/>
  <path id="Path_10" data-name="Path 10" d="M359.8,742.11c-.67,2,5.33,4.67,5.33,4.67v26.33s-2.72,15.81,1.21,20.42a3.29,3.29,0,0,0,2.46,1.25c7.33.33,23.33-49.67,23.33-49.67l1-28.89,4-2.77,5.67-36.67H392.46s-1.09-.67-2.84-1.57c-5-2.55-15.47-7-21.16-2.76L349.13,716S360.46,740.11,359.8,742.11Z" transform="translate(284.84 -49.303)" fill="#bc8487"/>
  <path id="Path_11" data-name="Path 11" d="M349.13,793.53a3.29,3.29,0,0,0,2.46,1.25c7.33.33,23.33-49.67,23.33-49.67l1-28.89,4-2.77,5.67-36.67H375.25s-1.09-.67-2.84-1.57l-2.49,37.57-1.33,32.33S356.03,780.31,349.13,793.53Z" transform="translate(302.05 -49.303)" opacity="0.1"/>
  <path id="Path_12" data-name="Path 12" d="M380.833,605.53c3.25,4.75,24.5,16.25,24.5,16.25s9,.5,19.5,8.5c5.43,4.14,24.3,12.35,41.25,19.32,15.83,6.51,30,11.93,30,11.93l16.32,19L524.833,695s7.5-3,8.25,2.5,12,11.75,11.75,12.75,4.25,3.5,4.25,5.75,16.75-16.25,16.5-27.5,8.5-19,8.5-19-2.25-4-5.75-3.25-6.5-.75-7.5-2-5.25,1.75-7.25.75-10-20.75-10-20.75l-31.17-20.91-62-41.56-2.86-1.92s-8.25,3.78-4.9-27.19c.65-6,1.74-13.29,3.4-22.17,10.25-54.75-26.5-61-26.5-61L387.3,480.25l-7.75,12v.06l-1.75,73.94S377.583,600.78,380.833,605.53Z" transform="translate(84.887 -49.303)" fill="#433a59"/>
  <path id="Path_13" data-name="Path 13" d="M455.229,640.53s-.1,3.55-.25,9.07c15.83,6.51,30,11.93,30,11.93l16.32,19c.27-15.75.21-36.21,0-57.18l-62-41.56C446.969,610.22,455.229,640.53,455.229,640.53Z" transform="translate(95.991 -49.303)" opacity="0.1"/>
  <path id="Path_14" data-name="Path 14" d="M503.995,492.28v.06l48.5.94s8.5,33.25,9.75,40.25c.31,1.72,2.19,9.07,4.85,19.17.65-6,1.74-13.29,3.4-22.17,10.25-54.75-26.5-61-26.5-61l-32.25,10.75Z" transform="translate(-39.525 -49.303)" opacity="0.1"/>
  <path id="Path_15" data-name="Path 15" d="M564.05,401.53l6.25,120s4.5,176.25,0,187.75-6.25,29.5-6.25,29.5,2.75,13.75,0,18.25-11.5,9.5-11.25,12-26.75,16-40.75-5.5c0,0,8.5-12,6.75-17.25s.75-13,.75-13,4.75-14.75,4.75-22.28,1.75-70.5,1.75-70.5-27.25-100-28.5-107-9.75-40.25-9.75-40.25l-51.5-1s1.5-35.75,4.5-43.5,17.75-64.5,17.75-64.5Z" transform="translate(28.17 -49.303)" fill="#433a59"/>
  <path id="Path_16" data-name="Path 16" d="M320.08,469.89l4.47,1.28.18,4.42-134.02,1.73v-1.74Z" transform="translate(358.09 -0.023)" fill="#7b728f"/>
  <path id="Path_17" data-name="Path 17" d="M472.951,151.15c19.5,39.55,7.39,47.82,5.46,48.84,4.13-1.92,57.81-27.14,50.75-33.54-4.59-4.17-8.52-22.31-10.83-35.31-1.37-7.76-2.17-13.69-2.17-13.69l-56.33,10.33A265.57,265.57,0,0,1,472.951,151.15Z" transform="translate(47.139 -49.303)" fill="#ffc5d3"/>
  <path id="Path_18" data-name="Path 18" d="M562.83,175.73l1.16,1.55L586.28,193l4.72-7.76c-6.87-4-27.47-11-27.47-11Z" transform="translate(-117.06 -49.303)" opacity="0.1"/>
  <path id="Path_19" data-name="Path 19" d="M561.862,211.78c2,7,35.75,0,35.75,0l3.5-5.5s.35-.7.94-1.84c2.16-4.19,7.39-14.11,9.55-15.87,2.75-2.25-29.5-13.25-29.5-13.25l-9.88,21.5a39.821,39.821,0,0,0-6.7,5.67C563.022,205.2,560.952,208.59,561.862,211.78Z" transform="translate(-136.642 -49.303)" fill="#e5e8ef"/>
  <path id="Path_20" data-name="Path 20" d="M630.634,215s-20,15.78-23,14.64-51.5,31.61-51.5,31.61-5.5,21,17.25,22.25c0,0,48.25-2,50.25-9S630.634,215,630.634,215Z" transform="translate(-149.414 -49.303)" fill="#5f5570"/>
  <path id="Path_21" data-name="Path 21" d="M535.447,183.28l21.75,22.5-30.5,194-12-7s-31,13.75-33.5,1-1.81-63-1.81-63l4.06-90.78s14.25-31.75,14.25-32.75,20.55-16.5,20.55-16.5l9.7-7.5Z" transform="translate(0.273 -49.303)" opacity="0.1"/>
  <path id="Path_22" data-name="Path 22" d="M535.447,180.28l21.75,22.5-30.5,194-12-7s-31,13.75-33.5,1-1.81-63-1.81-63l4.06-90.78s14.25-31.75,14.25-32.75,20.55-16.5,20.55-16.5l9.7-7.5Z" transform="translate(0.273 -49.303)" fill="#e5e8ef"/>
  <path id="Path_23" data-name="Path 23" d="M544.05,183.53l6,12.25-6,6.33s-21.5,43.42-17.25,69.17l-4.5,84.75-14.5,14.25L496.3,357l5.5-77s14.75-63.5,30.25-83.25l4.5-17.5Z" transform="translate(-9.58 -49.303)" opacity="0.1"/>
  <path id="Path_24" data-name="Path 24" d="M544.05,181.53l6,12.25-6,6.33s-21.5,43.42-17.25,69.17l-4.5,84.75-14.5,14.25L496.3,355l5.5-77s14.75-63.5,30.25-83.25l4.5-17.5Z" transform="translate(-9.58 -49.303)" fill="#bc8487"/>
  <path id="Path_25" data-name="Path 25" d="M471.3,127.78c5.46,8.8,9.76,16.55,13.12,23.37a38.45,38.45,0,0,0,10.9,1.57c12.36,0,19.48-8.55,26.48-17.63,1.6-2.06,6.86-1.58,8-4-1.37-7.76-2.17-13.69-2.17-13.69Z" transform="translate(35.67 -49.303)" opacity="0.1"/>
  <path id="Path_26" data-name="Path 26" d="M467.444,113.38a38.33,38.33,0,1,0,7.29-22.49A38.33,38.33,0,0,0,467.444,113.38Z" transform="translate(25.216 -49.303)" fill="#ffc5d3"/>
  <path id="Path_27" data-name="Path 27" d="M475.623,198.78l31.5-38s2.91-1.17-6.92-11.46c0,0-36.1,28.14-38.34,32.92S475.623,198.78,475.623,198.78Z" transform="translate(67.597 -49.303)" opacity="0.1"/>
  <path id="Path_28" data-name="Path 28" d="M474.623,196.78l31.5-38s2.91-1.17-6.92-11.46c0,0-36.1,28.14-38.34,32.92S474.623,196.78,474.623,196.78Z" transform="translate(69.597 -49.303)" fill="#e5e8ef"/>
  <path id="Path_29" data-name="Path 29" d="M509.79,438.63s6-3.6,6-7.85,3-64.25,3-64.25,4.4-35.81,9-64.27h0c2.7-16.77,5.47-31,7.43-33.82l.08-.12c5.25-6.75,4.25-39.75,37-88-.44.3-11.73,8.22-20,12.2a27.419,27.419,0,0,1-5.27,2c-7.5,1.75-32,11.25-31.25,26.5s-1.75,50.25-1.75,50.25V343Z" transform="translate(-45.32 -49.303)" fill="#5f5570"/>
  <path id="Path_30" data-name="Path 30" d="M571.528,211.78c2,7,35.75,0,35.75,0l3.5-5.5s.35-.7.94-1.84a.668.668,0,0,0,.05-.12c-19.61,1.37-30.54-.06-36.58-1.83C572.688,205.2,570.618,208.59,571.528,211.78Z" transform="translate(-146.308 -49.303)" opacity="0.1"/>
  <path id="Path_31" data-name="Path 31" d="M630.05,206.28s-10.5,29-9,36.25-24.25,35.75-24.25,35.75l-24.5-17s9.25-18.5,8-24,6.5-17.25,6.5-17.25l-.5-19.48S590.8,209,630.05,206.28Z" transform="translate(-165.58 -49.303)" fill="#5f5570"/>
  <path id="Path_32" data-name="Path 32" d="M467.856,90.89l19,.72a21.16,21.16,0,0,1,5.5.69c6.79,2.09,9.92,9.31,10.17,15.8s4,13.76,11.27,14.33a2.81,2.81,0,0,0,2.07-.46,3.42,3.42,0,0,0,.88-1.77,38.7,38.7,0,0,1,4.78-10.68c3,.54,5.22,3.39,6,6.37s.57,6.12.56,9.21a59.615,59.615,0,0,0,1.13,11.69,38.328,38.328,0,1,0-61.393-45.9Z" transform="translate(32.094 -49.303)" opacity="0.1"/>
  <path id="Path_33" data-name="Path 33" d="M495.7,91.3a21.16,21.16,0,0,0-5.5-.69l-23.07-.86c-3.38-.13-7.15-.43-9.42-2.94a8.81,8.81,0,0,1-1.76-3.29,14.2,14.2,0,0,1,1.49-11.63c2.67-4.25,7.35-6.72,11.81-9a137.233,137.233,0,0,1,12.77-6,68,68,0,0,1,50.1.72,20.219,20.219,0,0,1,4.46,2.39,23.05,23.05,0,0,1,4.86,5.8l7.59,11.44a15.749,15.749,0,0,1,2.39,4.62c1.43,5.43-3,10.86-2.54,16.45.26,2.78,1.73,5.33,2,8.11.36,3.59-1.28,7-2.89,10.27l-13.34,26.91a59.62,59.62,0,0,1-3.23-19.5c0-3.09.26-6.23-.56-9.21s-3-5.83-6-6.37a38.57,38.57,0,0,0-4.79,10.68,3.379,3.379,0,0,1-.88,1.77,2.8,2.8,0,0,1-2.07.46c-7.31-.57-11-7.77-11.27-14.33S502.491,93.39,495.7,91.3Z" transform="translate(29.739 -49.303)" fill="#8f7080"/>
  <path id="Path_34" data-name="Path 34" d="M341.06,471.17l-9.34-2.67-140.83,7.67,15.5,2Z" transform="translate(341.58 -0.023)" fill="#7b728f"/>
  <path id="Path_35" data-name="Path 35" d="M341.06,471.17l-9.34-2.67-140.83,7.67,15.5,2Z" transform="translate(341.58 -0.023)" opacity="0.1"/>
  <path id="Path_36" data-name="Path 36" d="M319.79,611.17l18.58-1.73,6.52-.6V505.5l-1.72-23.99-.38-5.34H323.62Z" transform="translate(208.85 -0.023)" fill="#7b728f"/>
  <path id="Path_37" data-name="Path 37" d="M319.79,607.5l14.82-1.64,5.2-.57V507.31l-1.37-22.74-.3-5.07H322.85Z" transform="translate(213.93 -0.023)" opacity="0.1"/>
  <path id="Path_38" data-name="Path 38" d="M425.55,520.45s-9.25-20.29-13.13-20.92-11,0-11,0l.63,5.88s9.5.75,12.5,16.62Z" transform="translate(209.8 -49.303)" fill="#7b728f"/>
  <path id="Path_39" data-name="Path 39" d="M425.55,520.45s-9.25-20.29-13.13-20.92-11,0-11,0l.63,5.88s9.5.75,12.5,16.62Z" transform="translate(209.8 -49.303)" opacity="0.1"/>
  <path id="Path_40" data-name="Path 40" d="M454.089,497.41s-24.87,12.37-21.62,26.87l13.5-.75s6.5-21.62,11.62-22.75S454.089,497.41,454.089,497.41Z" transform="translate(145.382 -49.303)" fill="#7b728f"/>
  <path id="Path_41" data-name="Path 41" d="M398.048,301.53v.73l.5,83.27s12.75,70,16.25,72.75,80.25-4.75,80.25-4.75L529.8,219.28c.25-40-28-38.75-28-38.75-3.75-6-21.75-10.75-21.75-10.75l-10-9.75-.32-.45a8.89,8.89,0,0,0-2.52-2.49h0c-2.06-1.19-3.37.38-4.12,1.93a11.63,11.63,0,0,0-.78,2.27C421.8,191,398.048,301.53,398.048,301.53Z" transform="translate(108.922 -49.303)" fill="#5f5570"/>
  <path id="Path_42" data-name="Path 42" d="M446.8,302.53v.73c12.57-23,61-110.14,74.25-114.48l-5.1-3.5s-3.4-2,2.85-4c0,0,9.75,1.25,10-10.5l-10.32-10.2-2.52-2.49h0l-4.12,1.93a11.63,11.63,0,0,0-.78,2.27C470.55,192,446.8,302.53,446.8,302.53Z" transform="translate(61.17 -49.303)" opacity="0.1"/>
  <path id="Path_43" data-name="Path 43" d="M447.8,301.53v.73c12.57-23,61-110.14,74.25-114.48l-5.1-3.5s-3.4-2,2.85-4c0,0,9.75,1.25,10-10.5l-10.32-10.2-2.52-2.49h0l-4.12,1.93a11.632,11.632,0,0,0-.78,2.27C471.55,191,447.8,301.53,447.8,301.53Z" transform="translate(59.17 -49.303)" fill="#433a59"/>
  <path id="Path_44" data-name="Path 44" d="M510.8,269.4l.08-.12c5.25-6.75,4.25-39.75,37-88-.44.3-11.73,8.22-20,12.2l2.31,7.62-5,2.67Z" transform="translate(-21.91 -49.303)" opacity="0.1"/>
  <path id="Path_45" data-name="Path 45" d="M509.8,268.4l.08-.12c5.25-6.75,4.25-39.75,37-88-.44.3-11.73,8.22-20,12.2l2.31,7.62-5,2.67Z" transform="translate(-19.91 -49.303)" fill="#433a59"/>
  <path id="Path_46" data-name="Path 46" d="M516.2,172.58l2.05,8.66s-1.5,8.67-10.49,9.42l-1.45-4.13S516.01,180.31,516.2,172.58Z" transform="translate(12.21 -49.303)" opacity="0.1"/>
  <path id="Path_47" data-name="Path 47" d="M516.2,171.58l2.05,8.66s-1.5,8.67-10.49,9.42l-1.45-4.13S516.01,179.31,516.2,171.58Z" transform="translate(12.21 -49.303)" fill="#e5e8ef"/>
  <path id="Path_48" data-name="Path 48" d="M319.79,477.57l5.88,131.87,6.52-.6V505.5l-1.72-23.99Z" transform="translate(221.55 -0.023)" opacity="0.1"/>
  <path id="Path_49" data-name="Path 49" d="M326.19,528.5l4,71.33-136,11.34-5.96-133.6Z" transform="translate(355.11 -0.023)" fill="#7b728f"/>
  <path id="Path_50" data-name="Path 50" d="M331.19,536.17l-2.66-63-139.3,6.4,6.63,66.6Z" transform="translate(353.11 -0.023)" opacity="0.1"/>
  <path id="Path_51" data-name="Path 51" d="M330.19,534.17l-2.66-63-139.3,6.4,6.63,66.6Z" transform="translate(355.11 -0.023)" fill="#7b728f"/>
  <rect id="Rectangle_8" data-name="Rectangle 8" width="16.75" height="19.5" transform="translate(609.97 534.227)" fill="#c3bbc8"/>
  <path id="Path_52" data-name="Path 52" d="M451.659,455.78l2.5,6.75s5.25,37-1.25,41.5-25.75,4.75-26.75,2.5-8-27.75-8-27.75-6.25,18.75-9.5,17.25,7.5-37.14,7.5-37.14Z" transform="translate(172.561 -49.303)" fill="#ffc5d3"/>
  <path id="Path_53" data-name="Path 53" d="M448.05,427.78v35.75s-26.5,5-38-3.64c0,0,10.75-34.61,6.75-43.36S448.05,427.78,448.05,427.78Z" transform="translate(178.67 -49.303)" opacity="0.1"/>
  <path id="Path_54" data-name="Path 54" d="M448.05,426.78v35.75s-26.5,5-38-3.64c0,0,10.75-34.61,6.75-43.36S448.05,426.78,448.05,426.78Z" transform="translate(178.67 -49.303)" fill="#e5e8ef"/>
  <path id="Path_55" data-name="Path 55" d="M445.595,217.53l7,3.75s1.25,15,2,17,0,22.25,0,22.25l.34,41s1.08,21.75,0,29.5-2.29,37.25-2.29,37.25-6.76,28.75-4.26,39-.25,33.25-4.5,31.25-43.5-9.75-45.5-11.25-1-15.5,0-17.25,7-25.5,6.5-31,1.75-53.75,1.75-53.75-3.75-51.5-5.25-63.5,3-47.25,7-47.75S424.095,186.28,445.595,217.53Z" transform="translate(184.125 -49.303)" opacity="0.1"/>
  <path id="Path_56" data-name="Path 56" d="M443.595,215.53l7,3.75s1.25,15,2,17,0,22.25,0,22.25l.34,41s1.08,21.75,0,29.5-2.29,37.25-2.29,37.25-6.76,28.75-4.26,39-.25,33.25-4.5,31.25-43.5-9.75-45.5-11.25-1-15.5,0-17.25,7-25.5,6.5-31,1.75-53.75,1.75-53.75-3.75-51.5-5.25-63.5,3-47.25,7-47.75S422.095,184.28,443.595,215.53Z" transform="translate(188.125 -49.303)" fill="#5f5570"/>
  <g id="Group_1" data-name="Group 1" transform="translate(485.052 23.017)" opacity="0.1">
    <path id="Path_57" data-name="Path 57" d="M460.83,104.77c3,.54,5.22,3.39,6,6.37s.57,6.12.56,9.21a59.611,59.611,0,0,0,3.22,19.5l13.35-26.91c.26-.53.53-1.08.79-1.63a36.365,36.365,0,0,1-2.29,5.38L469.11,143.6a59.61,59.61,0,0,1-3.22-19.5c0-3.09.25-6.23-.56-9.21s-3-5.83-6-6.37a40.136,40.136,0,0,0-2.59,4.73A39,39,0,0,1,460.83,104.77Z" transform="translate(-389.772 -72.32)"/>
    <path id="Path_58" data-name="Path 58" d="M488.208,72.32a14.16,14.16,0,0,0,.24,7.45,8.828,8.828,0,0,0,1.77,3.29c2.27,2.51,6,2.81,9.42,2.94l23.06.86a21.23,21.23,0,0,1,5.51.69c6.78,2.09,9.92,9.31,10.17,15.8s4,13.76,11.27,14.33a2.81,2.81,0,0,0,2.07-.46h0c-.23.65-.45,1.31-.64,2a3.3,3.3,0,0,1-.87,1.77,2.81,2.81,0,0,1-2.07.46c-7.32-.57-11-7.77-11.27-14.33s-3.39-13.71-10.17-15.8a21.231,21.231,0,0,0-5.51-.69l-23.06-.86c-3.38-.13-7.15-.43-9.42-2.94a8.831,8.831,0,0,1-1.77-3.29,14.2,14.2,0,0,1,1.27-11.22Z" transform="translate(-486.32 -72.32)"/>
  </g>
  <path id="Path_59" data-name="Path 59" d="M557.61,482.47s-8.66-4.5-12-4.25-33.33,38.39-33.33,38.39Z" transform="translate(-33.12 -49.303)" opacity="0.1"/>
  <path id="Path_60" data-name="Path 60" d="M408.032,224.35s15.83,6.76,15.41,11.43S408.032,224.35,408.032,224.35Z" transform="translate(205.288 -49.303)" opacity="0.1"/>
  <path id="Path_61" data-name="Path 61" d="M402.27,246.45s16.61,21.24,12.94,21.95S402.27,246.45,402.27,246.45Z" transform="translate(218.76 -49.303)" opacity="0.1"/>
  <path id="Path_62" data-name="Path 62" d="M460.7,278.28s-1.52,47.5,10.66,53.5Z" transform="translate(104.769 -49.303)" opacity="0.1"/>
  <path id="Path_63" data-name="Path 63" d="M422.7,405.11s-11.72-6.66-14.41-5.33S422.7,405.11,422.7,405.11Z" transform="translate(206.073 -49.303)" opacity="0.1"/>
  <path id="Path_64" data-name="Path 64" d="M421.511,414.32s-7.4.53-10.91-1S421.511,414.32,421.511,414.32Z" transform="translate(205.209 -49.303)" opacity="0.1"/>
  <path id="Path_65" data-name="Path 65" d="M601.17,239.41s-9.18,26.37-14.47,26.37" transform="translate(-151.1 -49.303)" opacity="0.1"/>
  <path id="Path_66" data-name="Path 66" d="M476.122,744.45s-17.22-4.67-19.76,0S476.122,744.45,476.122,744.45Z" transform="translate(104.488 -49.303)" opacity="0.1"/>
  <path id="Path_67" data-name="Path 67" d="M403.451,675.21s4.29,6.57-1.38,8.57S403.451,675.21,403.451,675.21Z" transform="translate(231.899 -49.303)" opacity="0.1"/>
  <path id="Path_68" data-name="Path 68" d="M535.9,583.53s-13,11.58-19.14,11.92S535.9,583.53,535.9,583.53Z" transform="translate(-14.931 -49.303)" opacity="0.1"/>
  <path id="Path_69" data-name="Path 69" d="M954.335,109.11s84.19-5.11,74.27,53.89c0,0,2,10.43-7.48,15.17,0,0-.15-4.38-8.64-2.89a39.411,39.411,0,0,1-9.14.44,19.08,19.08,0,0,1-11.17-4.59h0s-23.67-9.77-32.87-48.46c0,0-6.81-8.44-6.54-10.61l14.21,6.07s-4.86,10.25-1,18.77c0,0,.46-18.4,3.19-18,.56.09,7.39,3.55,7.39,3.55s-8.36,17.86-2.05,30.83c0,0-2.4-22,4.65-29.54l10,5.84s-9.77,18.44-3.15,33.49c0,0-1.7-23.08,5.25-32.07l9.06,7.07s-9.17,18.18-3.58,30.66c0,0,.73-26.87,5.55-28.9,0,0,7.92,7,9.13,9.86,0,0-6.28,13.2-2.38,20.16,0,0,2.39-17.9,4.35-18,0,0,7.9,11.86,8.72,20,0,0-.34-12.1-6.81-21.13,0,0,7.64,1.31,12.1,6.27,0,0-1.23-8.39-14-9.12,0,0-6.52-9-8.27-9.55,0,0,12.75-1.06,20.48,2.36,0,0-6.81-7.91-22.82-4.31l-9-7.3s16.79-2.3,23.9.24c0,0-8.19-7-26.31-1.9l-9.74-5.83s14.31-3.08,22.83-2c0,0-9-4.85-25.68.41l-7-3.13s10.48-2.06,13.55-2.38,3.24-1.18,3.24-1.18a36.39,36.39,0,0,0-19.7,2.19S954.075,110,954.335,109.11Z" transform="translate(-945.405 -49.303)" fill="#e40044"/>
  <path id="Path_70" data-name="Path 70" d="M827.521,97.8s38-2.29,33.56,24.37c0,0,.89,4.71-3.38,6.85,0,0-.07-2-3.9-1.31a17.05,17.05,0,0,1-4.14.2,8.62,8.62,0,0,1-5-2.08h0s-10.69-4.42-14.85-21.9c0,0-3.08-3.81-3-4.79l6.44,2.74s-2.19,4.63-.47,8.48c0,0,.21-8.31,1.45-8.12.25,0,3.33,1.61,3.33,1.61s-3.77,8.07-.92,13.93c0,0-1.09-9.94,2.1-13.35l4.51,2.64s-4.41,8.33-1.42,15.13c0,0-.77-10.43,2.37-14.49l4.09,3.2s-4.14,8.21-1.61,13.85c0,0,.33-12.14,2.5-13.06,0,0,3.58,3.16,4.13,4.46,0,0-2.84,6-1.08,9.11,0,0,1.08-8.09,2-8.13,0,0,3.57,5.36,3.94,9a19.4,19.4,0,0,0-3.08-9.54,10.72,10.72,0,0,1,5.47,2.83s-.56-3.79-6.35-4.12c0,0-2.95-4.07-3.74-4.31,0,0,5.76-.49,9.26,1.06,0,0-3.08-3.57-10.31-2l-4-3.3s7.59-1,10.8.11c0,0-3.7-3.16-11.88-.86l-4.41-2.63s6.47-1.39,10.32-.89c0,0-4.06-2.19-11.61.18l-3.14-1.41s4.73-.93,6.12-1.08,1.46-.53,1.46-.53a16.51,16.51,0,0,0-8.9,1S827.4,98.22,827.521,97.8Z" transform="translate(-651.481 -49.303)" fill="#e40044"/>
  <ellipse id="Ellipse_3" data-name="Ellipse 3" cx="26.93" cy="4.55" rx="26.93" ry="4.55" transform="translate(0 718.307)" fill="#e40044" opacity="0.1"/>
  <ellipse id="Ellipse_4" data-name="Ellipse 4" cx="26.93" cy="4.55" rx="26.93" ry="4.55" transform="translate(819.67 650.577)" fill="#e40044" opacity="0.1"/>
  <ellipse id="Ellipse_5" data-name="Ellipse 5" cx="26.93" cy="4.55" rx="26.93" ry="4.55" transform="translate(18.74 630.177)" fill="#e40044" opacity="0.1"/>
  <ellipse id="Ellipse_6" data-name="Ellipse 6" cx="26.93" cy="4.55" rx="26.93" ry="4.55" transform="translate(715.51 674.987)" fill="#e40044" opacity="0.1"/>
  <ellipse id="Ellipse_7" data-name="Ellipse 7" cx="26.93" cy="4.55" rx="26.93" ry="4.55" transform="translate(138.78 678.897)" fill="#e40044" opacity="0.1"/>
  <ellipse id="Ellipse_8" data-name="Ellipse 8" cx="40.21" cy="6.8" rx="40.21" ry="6.8" transform="translate(45.66 764.817)" fill="#e40044"/>
  <path id="Path_71" data-name="Path 71" d="M934.293,809.8a11.68,11.68,0,0,1-3.83-5.78c-.5-2.3.48-5,2.68-5.89,2.46-.94,5.09.76,7.08,2.48s4.28,3.69,6.89,3.33a10.5,10.5,0,0,1-3.25-9.82,4.131,4.131,0,0,1,.91-2c1.36-1.46,3.84-.83,5.47.32,5.2,3.66,6.65,10.72,6.68,17.08.52-2.3.08-4.69.1-7s.65-5,2.64-6.22a8,8,0,0,1,4-.95c2.34-.08,4.94.15,6.53,1.86,2,2.12,1.47,5.69-.25,8s-4.35,3.8-6.77,5.42a14.89,14.89,0,0,0-4.83,4.61,3.833,3.833,0,0,0-.36.82h-14.66a40.9,40.9,0,0,1-9.03-6.26Z" transform="translate(-865.043 -49.303)" fill="#e40044"/>
  <path id="Path_72" data-name="Path 72" d="M292.937,617s-5.5,7.18,2.53,18,14.65,20,12,26.76c0,0-12.12-20.14-22-20.42S282.087,629.14,292.937,617Z" transform="translate(448.113 -49.303)" fill="#e40044"/>
  <path id="Path_73" data-name="Path 73" d="M293.275,617a8.632,8.632,0,0,0-1.12,2.25c-9.62,11.3-14.75,21.85-5.5,22.12,8.61.24,18.94,15.64,21.42,19.53a9.244,9.244,0,0,1-.29.89s-12.12-20.14-22-20.42S282.425,629.14,293.275,617Z" transform="translate(447.775 -49.303)" opacity="0.1"/>
  <path id="Path_74" data-name="Path 74" d="M304.67,626.18c0,2.53.28,4.58.63,4.58s.63-2,.63-4.58-.35-1.34-.7-1.34S304.67,623.65,304.67,626.18Z" transform="translate(426.17 -49.303)" fill="#ffd037"/>
  <path id="Path_75" data-name="Path 75" d="M306.454,629.2c2.22,1.21,4.16,1.94,4.32,1.64s-1.49-1.54-3.71-2.75-1.35-.33-1.51,0S304.234,628,306.454,629.2Z" transform="translate(420.876 -49.303)" fill="#ffd037"/>
  <path id="Path_76" data-name="Path 76" d="M269.488,617s5.5,7.18-2.53,18-14.65,20-12,26.76c0,0,12.11-20.14,22-20.42S280.338,629.14,269.488,617Z" transform="translate(500.572 -49.303)" fill="#e40044"/>
  <path id="Path_77" data-name="Path 77" d="M269.143,617a8.819,8.819,0,0,1,1.13,2.25c9.62,11.3,14.74,21.85,5.5,22.12-8.62.24-18.95,15.64-21.43,19.53a7.16,7.16,0,0,0,.3.89s12.11-20.14,22-20.42S279.993,629.14,269.143,617Z" transform="translate(500.917 -49.303)" opacity="0.1"/>
  <path id="Path_78" data-name="Path 78" d="M257.76,626.18c0,2.53-.29,4.58-.64,4.58s-.63-2-.63-4.58.35-1.34.7-1.34S257.76,623.65,257.76,626.18Z" transform="translate(522.52 -49.303)" fill="#ffd037"/>
  <path id="Path_79" data-name="Path 79" d="M255.975,629.2c-2.22,1.21-4.15,1.94-4.32,1.64s1.5-1.54,3.72-2.75,1.34-.33,1.51,0S258.2,628,255.975,629.2Z" transform="translate(527.795 -49.303)" fill="#ffd037"/>
  <path id="Path_80" data-name="Path 80" d="M315.4,660.88s-15.36-.47-20-3.77-23.63-7.23-24.77-1.94-23.09,26.29-5.75,26.43,40.3-2.7,44.92-5.52S315.4,660.88,315.4,660.88Z" transform="translate(463.126 -49.303)" fill="#a8a8a8"/>
  <path id="Path_81" data-name="Path 81" d="M264.573,679.76c17.34.14,40.3-2.7,44.92-5.52,3.51-2.14,4.92-9.83,5.39-13.38h.51s-1,12.39-5.59,15.2-27.58,5.66-44.92,5.52c-5,0-6.73-1.82-6.64-4.46C258.943,678.73,260.853,679.73,264.573,679.76Z" transform="translate(463.137 -49.303)" opacity="0.2"/>
</svg>
