<svg xmlns="http://www.w3.org/2000/svg" xmlns:xlink="http://www.w3.org/1999/xlink" width="600" height="600" viewBox="0 0 600 600">
  <defs>
  <style>
  @import url('https://fonts.googleapis.com/css2?family=Asap');
</style>  
    <clipPath id="clip-mobile-slider">
      <rect width="600" height="600"/>
    </clipPath>
  </defs>
  <g id="mobile-slider" clip-path="url(#clip-mobile-slider)">
    <rect width="600" height="600" fill="#e40044"/>
    <g id="mobile-slider-2" data-name="mobile-slider" transform="translate(59 -34)">
      <g id="BACKGROUND">
        <rect id="Rectangle_1" data-name="Rectangle 1" width="500" height="500" fill="#e40044"/>
      </g>
      <g id="OBJECTS">
        <ellipse id="Ellipse_1" data-name="Ellipse 1" cx="202.48" cy="13.5" rx="202.48" ry="13.5" transform="translate(60.98 356.56)" fill="#fff"/>
        <path id="Path_1" data-name="Path 1" d="M142.44,370.06h0a10.73,10.73,0,0,1-10.71-10.7h0a10.74,10.74,0,0,1,10.71-10.71h0a10.73,10.73,0,0,1,10.7,10.71h0A10.72,10.72,0,0,1,142.44,370.06Z" fill="#2d1f6a"/>
        <path id="Path_2" data-name="Path 2" d="M154.07,364.48H130.8a5.6,5.6,0,0,1-5.58-5.59h0a5.6,5.6,0,0,1,5.58-5.58h23.27a5.6,5.6,0,0,1,5.59,5.58h0A5.61,5.61,0,0,1,154.07,364.48Z" fill="#c1d3e9"/>
        <path id="Path_3" data-name="Path 3" d="M388.2,370.06h0a10.73,10.73,0,0,1-10.7-10.7h0a10.74,10.74,0,0,1,10.7-10.71h0a10.74,10.74,0,0,1,10.71,10.71h0a10.73,10.73,0,0,1-10.71,10.7Z" fill="#2d1f6a"/>
        <path id="Path_4" data-name="Path 4" d="M399.84,364.48H376.57a5.61,5.61,0,0,1-5.59-5.59h0a5.6,5.6,0,0,1,5.59-5.58h23.27a5.6,5.6,0,0,1,5.59,5.58h0a5.61,5.61,0,0,1-5.59,5.59Z" fill="#c1d3e9"/>
        <path id="Path_5" data-name="Path 5" d="M375.64,320.72h0a9.25,9.25,0,0,1-9.23-9.22V166.4a9.25,9.25,0,0,1,9.23-9.22h0a9.25,9.25,0,0,1,9.22,9.22V311.5a9.25,9.25,0,0,1-9.22,9.22Z" fill="#022b5f"/>
        <path id="Path_6" data-name="Path 6" d="M381.51,266.21a9.25,9.25,0,0,1-9.23-9.23V157.82a9.26,9.26,0,0,0-5.87,8.58V311.5a9.23,9.23,0,0,0,18.45,0V265.56a8.919,8.919,0,0,1-3.35.65Z" fill="#02214a"/>
        <rect id="Rectangle_2" data-name="Rectangle 2" width="338.86" height="92.16" rx="22.77" transform="translate(98.22 267.66)" fill="#fff"/>
        <rect id="Rectangle_3" data-name="Rectangle 3" width="309.07" height="62.37" rx="7.87" transform="translate(113.11 282.56)" fill="#022b5f"/>
        <path id="Path_7" data-name="Path 7" d="M142.4,327.24a8,8,0,0,1-7.88-7.87V282.56H121a8,8,0,0,0-7.88,7.87v46.63a8,8,0,0,0,7.88,7.87H414.31a8,8,0,0,0,7.87-7.87v-9.82Z" fill="#02244f"/>
        <circle id="Ellipse_2" data-name="Ellipse 2" cx="9.31" cy="9.31" r="9.31" transform="translate(159.66 303.97)" fill="#e1ee96"/>
        <path id="Path_8" data-name="Path 8" d="M229.48,313.28a4.65,4.65,0,1,1-1.358-3.295A4.66,4.66,0,0,1,229.48,313.28Z" fill="#f08619"/>
        <path id="Path_9" data-name="Path 9" d="M277,313.28a4.66,4.66,0,1,1-4.66-4.66,4.66,4.66,0,0,1,4.66,4.66Z" fill="#f08619"/>
        <path id="Path_10" data-name="Path 10" d="M324.44,313.28a4.66,4.66,0,1,1-4.66-4.66A4.66,4.66,0,0,1,324.44,313.28Z" fill="#f08619"/>
        <path id="Path_11" data-name="Path 11" d="M371.91,313.28a4.65,4.65,0,1,1-1.358-3.295,4.66,4.66,0,0,1,1.358,3.295Z" fill="#f08619"/>
        <path id="Path_12" data-name="Path 12" d="M385.41,293.73H270.91a3.27,3.27,0,0,1-3.26-3.26h0a3.27,3.27,0,0,1,3.26-3.26h114.5a3.27,3.27,0,0,1,3.26,3.26h0a3.27,3.27,0,0,1-3.26,3.26Z" fill="#004fc6"/>
        <path id="Path_13" data-name="Path 13" d="M412.41,293.73h-14.9a3.26,3.26,0,0,1-3.25-3.26h0a3.26,3.26,0,0,1,3.25-3.26h14.9a3.27,3.27,0,0,1,3.26,3.26h0a3.27,3.27,0,0,1-3.26,3.26Z" fill="#004fc6"/>
        <g id="Group_1" data-name="Group 1" opacity="0.53">
          <path id="Path_14" data-name="Path 14" d="M144.26,332.83a22.84,22.84,0,0,1-22.77-22.77v-42.4H121a22.84,22.84,0,0,0-22.77,22.77v46.63A22.83,22.83,0,0,0,121,359.82H414.31a22.83,22.83,0,0,0,22.77-22.76v-4.23Z" fill="#c1d3e9"/>
        </g>
        <path id="Path_15" data-name="Path 15" d="M380.28,219.92h0a1,1,0,0,1-1-1V166.67a1,1,0,0,1,1-1h0a1,1,0,0,1,1,1v52.25A1,1,0,0,1,380.28,219.92Z" fill="#004fc6"/>
        <path id="Path_16" data-name="Path 16" d="M398.73,151.74a8.73,8.73,0,0,1-6.19-2.57,21.3,21.3,0,0,0-30.08,0,8.76,8.76,0,0,1-12.39-12.38,38.83,38.83,0,0,1,54.86,0,8.76,8.76,0,0,1-6.2,15Z" fill="#fff"/>
        <path id="Path_17" data-name="Path 17" d="M416.71,129.74a8.74,8.74,0,0,1-6.2-2.57,46.75,46.75,0,0,0-66,0,8.76,8.76,0,0,1-12.38-12.39,64.28,64.28,0,0,1,90.8,0,8.77,8.77,0,0,1-6.19,15Z" fill="#fff"/>
        <path id="Path_18" data-name="Path 18" d="M441.73,109.19a8.72,8.72,0,0,1-6.19-2.56,82.08,82.08,0,0,0-116.08,0,8.761,8.761,0,0,1-12.39-12.39,99.61,99.61,0,0,1,140.86,0,8.76,8.76,0,0,1-6.2,15Z" fill="#fff"/>
        <path id="Path_19" data-name="Path 19" d="M215.48,101.09a1.63,1.63,0,0,1-1.18-.49,4.08,4.08,0,0,0-5.75,0,1.672,1.672,0,1,1-2.37-2.36,7.42,7.42,0,0,1,10.48,0,1.65,1.65,0,0,1,0,2.36A1.63,1.63,0,0,1,215.48,101.09Z" fill="#fff"/>
        <path id="Path_20" data-name="Path 20" d="M218.91,96.89a1.65,1.65,0,0,1-1.18-.49,8.93,8.93,0,0,0-12.62,0,1.683,1.683,0,0,1-2.36-2.4,12.29,12.29,0,0,1,17.35,0,1.68,1.68,0,0,1-1.19,2.86Z" fill="#fff"/>
        <path id="Path_21" data-name="Path 21" d="M223.69,93a1.71,1.71,0,0,1-1.18-.49,15.67,15.67,0,0,0-22.18,0,1.673,1.673,0,1,1-2.33-2.4,19,19,0,0,1,26.91,0,1.68,1.68,0,0,1,0,2.37A1.72,1.72,0,0,1,223.69,93Z" fill="#fff"/>
        <path id="Path_22" data-name="Path 22" d="M240.22,176.08c0-.48.07-1,.07-1.47a17.84,17.84,0,0,0-17.84-17.84h0a36.33,36.33,0,0,0-36.31-35.36,37,37,0,0,0-5.61.43A44.44,44.44,0,0,0,103,132.47a33.17,33.17,0,0,0-30.31,44.05,11.47,11.47,0,0,0-8.17,10.95V189a11.47,11.47,0,0,0,11.4,11.4H239.26A11.46,11.46,0,0,0,250.69,189v-1.5A11.47,11.47,0,0,0,240.22,176.08Z" fill="#fff"/>
        <path id="Path_23" data-name="Path 23" d="M231.93,151l2.86,4.86s-3,8.44-1.55,10.11,22.61,8.9,25.22,8.13S240,154.89,240,154.89l-5-11.12S227.83,144.33,231.93,151Z" fill="#e3a881"/>
        <path id="Path_24" data-name="Path 24" d="M182.29,153.14s11.74-7.3,14.07-10.72S204,119.7,213.43,118s27.12,31.07,27.12,31.07-8.08,7.82-9.8,5.77-12.33-20.06-12.33-20.06-10.42,17.63-12,18.31S191.42,166.28,182.29,153.14Z" fill="#012045"/>
        <path id="Path_25" data-name="Path 25" d="M231.32,163.06a3.37,3.37,0,0,0,.44,3.3c1.19,1.9,25.58,8.57,26.86,8.11s2-2.47,2-2.47Z" fill="#e6eaf0"/>
        <path id="Path_26" data-name="Path 26" d="M234.86,156.52s2.26,2.23,9.89,2.06c0,0,17.18,11.17,15.83,13.87s-28.21-6.82-28.54-7.29a3.16,3.16,0,0,1-.31-3.63C232.69,159.52,234,156.45,234.86,156.52Z" fill="#012045"/>
        <path id="Path_27" data-name="Path 27" d="M255.27,166.78a6.68,6.68,0,0,1-4.19.69A4.37,4.37,0,0,1,250,167l-.91-.48-1.78-1a49.6,49.6,0,0,1-6.78-4.64,49.907,49.907,0,0,1,7.41,3.64l1.77,1.07c.58.35,1.17.78,1.63,1A9.76,9.76,0,0,0,255.27,166.78Z" fill="#fff"/>
        <path id="Path_28" data-name="Path 28" d="M172.45,111.39s5.26,12.49,9.9,14.12,18.84-8.41,18.84-8.41-.45-5,.69-5.92,3.67.5,3.67.5,6-7.14,7.86-7.75-2.54,6.18-2.54,6.18,1.45,5.17-.16,7-6.24,3.78-6.24,3.78S193,133.56,184.38,135.05s-22.3-14.31-22.3-14.31S165.82,110.56,172.45,111.39Z" fill="#e3a881"/>
        <path id="Path_29" data-name="Path 29" d="M194,121s-7.14,2.61-7.73,3.11a9.05,9.05,0,0,1-2.63.9s-.77-2-1.45-2-8.09-11.8-8.09-11.8-3.14-6.22-8.85-8.94-9.65,6.62-9.65,6.62c1,8.48,4.19,11.65,6.42,12.84h0S174.87,135,181.19,135.8s15.73-5.8,15.73-5.8C197.69,125.09,194,121,194,121Z" fill="#d5e384"/>
        <path id="Path_30" data-name="Path 30" d="M200.83,115v3.47a1.38,1.38,0,0,0,2.35,1l10-10.09a1.34,1.34,0,0,0,.4-1l-.18-3.41a1.37,1.37,0,0,0-2.35-.89l-9.89,10a1.42,1.42,0,0,0-.33.92Z" fill="#fff"/>
        <path id="Path_31" data-name="Path 31" d="M155.38,98.57s-16.15,17.83-3,37.69,26.4,26.67,26.4,26.67,10.66-9.25,13.87-15.4-17.65-10.44-17.1-27.71C176,106.05,155.38,98.57,155.38,98.57Z" fill="#e1ee96"/>
        <path id="Path_32" data-name="Path 32" d="M170.12,117.09s4.9,12.12,9.54,13.75,19.2-8,19.2-8-.44-5,.69-5.92,3.68.5,3.68.5,6-7.14,7.86-7.75-2.55,6.18-2.55,6.18,1.45,5.17-.15,7-6.24,3.78-6.24,3.78-11.85,12.29-20.46,13.78-21.94-13.94-21.94-13.94S163.49,116.25,170.12,117.09Z" fill="#f8c6a5"/>
        <path id="Path_33" data-name="Path 33" d="M222.69,156.31l2.87,4.86s-3.05,8.44-1.55,10.11,22.61,8.9,25.22,8.13-18.49-19.24-18.49-19.24l-5-11.12S218.6,149.61,222.69,156.31Z" fill="#f8c6a5"/>
        <path id="Path_34" data-name="Path 34" d="M221.92,168.11a3.4,3.4,0,0,0,.44,3.3c1.19,1.89,25.58,8.56,26.87,8.1s2-2.47,2-2.47Z" fill="#e6eaf0"/>
        <path id="Path_35" data-name="Path 35" d="M225.47,161.56s2.25,2.23,9.89,2.07c0,0,17.18,11.16,15.82,13.86s-28.21-6.82-28.54-7.29a3.18,3.18,0,0,1-.31-3.63C223.29,164.56,224.59,161.49,225.47,161.56Z" fill="#022b5f"/>
        <path id="Path_36" data-name="Path 36" d="M245.87,171.82a6.75,6.75,0,0,1-4.19.7,4.791,4.791,0,0,1-1.07-.46l-.9-.49-1.79-1a49.6,49.6,0,0,1-6.78-4.64,50.5,50.5,0,0,1,7.42,3.64l1.76,1.07c.58.35,1.17.79,1.63,1A10,10,0,0,0,245.87,171.82Z" fill="#fff"/>
        <path id="Path_37" data-name="Path 37" d="M173.06,158.42s11.74-7.3,14.07-10.72,7.63-22.72,17.07-24.41,27.12,31.07,27.12,31.07-8.08,7.82-9.8,5.77-12.33-20.06-12.33-20.06-10.43,17.63-12,18.31S182.19,171.56,173.06,158.42Z" fill="#022b5f"/>
        <path id="Path_38" data-name="Path 38" d="M153.46,100.82s5.34-6,4.73-8.3-3.91-16.89,9.38-18.77c11.81-1.66,15.2,8.46,16,10.53.58,1.59-.37,9-.83,12.26a17,17,0,0,1-.79,3.24c-.67,1.89-1.78,4.77-2.52,5.29-1.11.79-10.11-1-13.2-3.47-2.21-1.76.15,5.62-1.69,5.7S152.11,105.14,153.46,100.82Z" fill="#f8c6a5"/>
        <path id="Path_39" data-name="Path 39" d="M159.75,74.79s.41-2.2,1.13-2.29l.72,1.65s8.51-3.39,14.55-2.38l-.6.64s10.21,4.21,11,8.42-14.19,7.69-14.19,7.69l.79-2-3.1,1.37V86.42S167.73,89,167.36,89s-3.2-4.4-4.85-2.2-.1,8.33,3.8,7.51l-6,3.2.19-1.19L155.92,96s1.36-1.38,1.14-1.84-2-5.49-1.14-9.66h-.82a15,15,0,0,1,2-5.9l-1.23.09s1.28-2,2.84-2.19l.18-3Z" fill="#022654"/>
        <path id="Path_40" data-name="Path 40" d="M190,126.83s-7.14,2.61-7.73,3.11a9.05,9.05,0,0,1-2.63.9s-.76-2-1.45-2-8.09-11.8-8.09-11.8-3.13-6.22-8.84-8.94-9.65,6.62-9.65,6.62c1,8.47,4.19,11.65,6.42,12.84h0s12.88,13.23,19.2,14S193,135.89,193,135.89C193.75,131,190,126.83,190,126.83Z" fill="#edf7b4"/>
        <path id="Path_41" data-name="Path 41" d="M185.28,162.9v-.6a7.27,7.27,0,0,0-7.26-7.27h0a14.79,14.79,0,0,0-14.79-14.4,14.441,14.441,0,0,0-2.29.18,18.1,18.1,0,0,0-31.58,4.32A13.51,13.51,0,0,0,117,163.07a4.68,4.68,0,0,0-3.32,4.46v.61a4.66,4.66,0,0,0,4.65,4.66h66.53a4.67,4.67,0,0,0,4.66-4.66v-.61a4.67,4.67,0,0,0-4.24-4.63Z" fill="#e0e0e0"/>
        <path id="Path_42" data-name="Path 42" d="M52.53,390.27h0a.71.71,0,0,1-.7-.7v-3.31a.71.71,0,0,1,.7-.7h0a.7.7,0,0,1,.7.7v3.31A.7.7,0,0,1,52.53,390.27Z" fill="#fff"/>
        <path id="Path_43" data-name="Path 43" d="M50.18,387.92h0a.7.7,0,0,1,.7-.71h3.31a.71.71,0,0,1,.7.71h0a.71.71,0,0,1-.7.7H50.88A.7.7,0,0,1,50.18,387.92Z" fill="#fff"/>
        <path id="Path_44" data-name="Path 44" d="M141,254.65h0a.7.7,0,0,1-.7-.7v-3.3a.7.7,0,0,1,.7-.71h0a.7.7,0,0,1,.7.71V254A.7.7,0,0,1,141,254.65Z" fill="#fff"/>
        <path id="Path_45" data-name="Path 45" d="M138.65,252.3h0a.7.7,0,0,1,.7-.7h3.3a.7.7,0,0,1,.71.7h0a.71.71,0,0,1-.71.7h-3.3A.7.7,0,0,1,138.65,252.3Z" fill="#fff"/>
        <path id="Path_46" data-name="Path 46" d="M347.5,411.78h0a.7.7,0,0,1-.7-.7v-3.3a.71.71,0,0,1,.7-.71h0a.7.7,0,0,1,.7.71v3.3A.7.7,0,0,1,347.5,411.78Z" fill="#fff"/>
        <path id="Path_47" data-name="Path 47" d="M345.15,409.43h0a.7.7,0,0,1,.7-.7h3.31a.7.7,0,0,1,.7.7h0a.71.71,0,0,1-.7.7h-3.31a.7.7,0,0,1-.7-.7Z" fill="#fff"/>
        <path id="Path_48" data-name="Path 48" d="M271,247.29h0a.7.7,0,0,1-.7-.7v-3.3a.71.71,0,0,1,.7-.71h0a.7.7,0,0,1,.7.71v3.3a.7.7,0,0,1-.7.7Z" fill="#fff"/>
        <path id="Path_49" data-name="Path 49" d="M268.63,244.94h0a.7.7,0,0,1,.7-.7h3.31a.7.7,0,0,1,.7.7h0a.71.71,0,0,1-.7.7h-3.31a.7.7,0,0,1-.7-.7Z" fill="#fff"/>
        <path id="Path_50" data-name="Path 50" d="M185.66,225.06h0a.7.7,0,0,1-.71-.7v-3.3a.71.71,0,0,1,.71-.71h0a.71.71,0,0,1,.7.71v3.3A.7.7,0,0,1,185.66,225.06Z" fill="#fff"/>
        <path id="Path_51" data-name="Path 51" d="M183.3,222.71h0a.7.7,0,0,1,.7-.7h3.31a.7.7,0,0,1,.7.7h0a.71.71,0,0,1-.7.7H184a.71.71,0,0,1-.7-.7Z" fill="#fff"/>
        <path id="Path_52" data-name="Path 52" d="M425.85,265.71h0a.71.71,0,0,1-.7-.7V261.7a.7.7,0,0,1,.7-.7h0a.7.7,0,0,1,.7.7V265a.7.7,0,0,1-.7.71Z" fill="#fff"/>
        <path id="Path_53" data-name="Path 53" d="M423.5,263.35h0a.7.7,0,0,1,.7-.7h3.31a.71.71,0,0,1,.7.7h0a.7.7,0,0,1-.7.7H424.2a.7.7,0,0,1-.7-.7Z" fill="#fff"/>
        <path id="Path_54" data-name="Path 54" d="M233.84,209.3h0a.7.7,0,0,1-.7-.7v-3.3a.71.71,0,0,1,.7-.71h0a.71.71,0,0,1,.71.71v3.3a.7.7,0,0,1-.71.7Z" fill="#fff"/>
        <path id="Path_55" data-name="Path 55" d="M231.49,207h0a.7.7,0,0,1,.7-.7h3.31a.7.7,0,0,1,.7.7h0a.71.71,0,0,1-.7.7h-3.31A.7.7,0,0,1,231.49,207Z" fill="#fff"/>
        <path id="Path_56" data-name="Path 56" d="M85.37,293.73h0a.71.71,0,0,1-.7-.7v-3.31a.7.7,0,0,1,.7-.7h0a.7.7,0,0,1,.71.7V293a.71.71,0,0,1-.71.73Z" fill="#fff"/>
        <path id="Path_57" data-name="Path 57" d="M83,291.37h0a.71.71,0,0,1,.7-.7H87a.71.71,0,0,1,.7.7h0a.7.7,0,0,1-.7.7H83.72a.7.7,0,0,1-.72-.7Z" fill="#fff"/>
        <path id="Path_58" data-name="Path 58" d="M92,227.42h0a.7.7,0,0,1-.7-.7v-3.31a.7.7,0,0,1,.7-.7h0a.7.7,0,0,1,.7.7v3.31A.7.7,0,0,1,92,227.42Z" fill="#fff"/>
        <path id="Path_59" data-name="Path 59" d="M89.68,225.06h0a.7.7,0,0,1,.7-.7h3.3a.7.7,0,0,1,.7.7h0a.7.7,0,0,1-.7.71h-3.3a.7.7,0,0,1-.7-.71Z" fill="#fff"/>
        <path id="Path_60" data-name="Path 60" d="M434.7,220.5h0a.7.7,0,0,1-.7-.7v-3.31a.7.7,0,0,1,.7-.7h0a.71.71,0,0,1,.7.7v3.31a.7.7,0,0,1-.7.7Z" fill="#fff"/>
        <rect id="Rectangle_4" data-name="Rectangle 4" width="4.71" height="1.4" rx="0.7" transform="translate(432.34 217.44)" fill="#fff"/>
        <path id="Path_61" data-name="Path 61" d="M279.22,180.68h0a.71.71,0,0,1-.7-.7v-3.31a.7.7,0,0,1,.7-.7h0a.7.7,0,0,1,.71.7V180a.71.71,0,0,1-.71.68Z" fill="#fff"/>
        <path id="Path_62" data-name="Path 62" d="M276.87,178.32h0a.71.71,0,0,1,.7-.7h3.31a.71.71,0,0,1,.7.7h0a.7.7,0,0,1-.7.7h-3.31a.7.7,0,0,1-.7-.7Z" fill="#fff"/>
        <path id="Path_63" data-name="Path 63" d="M131.45,42.64h0a.71.71,0,0,1-.7-.71v-3.3a.7.7,0,0,1,.7-.7h0a.7.7,0,0,1,.7.7v3.3a.7.7,0,0,1-.7.71Z" fill="#fff"/>
        <path id="Path_64" data-name="Path 64" d="M129.1,40.28h0a.7.7,0,0,1,.7-.7h3.3a.71.71,0,0,1,.71.7h0a.7.7,0,0,1-.71.7h-3.3a.7.7,0,0,1-.7-.7Z" fill="#fff"/>
        <path id="Path_65" data-name="Path 65" d="M278.52,112h0a.7.7,0,0,1-.7-.7V108a.71.71,0,0,1,.7-.71h0a.7.7,0,0,1,.7.71v3.3a.7.7,0,0,1-.7.7Z" fill="#fff"/>
        <rect id="Rectangle_5" data-name="Rectangle 5" width="4.71" height="1.4" rx="0.7" transform="translate(276.17 108.9)" fill="#fff"/>
        <path id="Path_66" data-name="Path 66" d="M217,60.39h0a.7.7,0,0,1-.7-.7V56.38a.7.7,0,0,1,.7-.7h0a.71.71,0,0,1,.7.7v3.31a.71.71,0,0,1-.7.7Z" fill="#fff"/>
        <path id="Path_67" data-name="Path 67" d="M214.62,58h0a.71.71,0,0,1,.7-.71h3.31a.7.7,0,0,1,.7.71h0a.7.7,0,0,1-.7.7h-3.31a.71.71,0,0,1-.7-.7Z" fill="#fff"/>
        <rect id="Rectangle_6" data-name="Rectangle 6" width="1.4" height="4.71" rx="0.7" transform="translate(328.52 47.12)" fill="#fff"/>
        <path id="Path_68" data-name="Path 68" d="M326.87,49.47h0a.7.7,0,0,1,.7-.7h3.3a.71.71,0,0,1,.71.7h0a.7.7,0,0,1-.71.7h-3.3A.7.7,0,0,1,326.87,49.47Z" fill="#fff"/>
        <path id="Path_69" data-name="Path 69" d="M290.59,78.15h0a.7.7,0,0,1-.7-.71v-3.3a.7.7,0,0,1,.7-.7h0a.7.7,0,0,1,.7.7v3.3a.71.71,0,0,1-.7.71Z" fill="#fff"/>
        <path id="Path_70" data-name="Path 70" d="M288.23,75.79h0a.7.7,0,0,1,.7-.7h3.31a.7.7,0,0,1,.7.7h0a.7.7,0,0,1-.7.7h-3.31A.7.7,0,0,1,288.23,75.79Z" fill="#fff"/>
        <path id="Path_71" data-name="Path 71" d="M446,166.91h0a.7.7,0,0,1-.7-.71v-3.3a.7.7,0,0,1,.7-.7h0a.7.7,0,0,1,.7.7v3.3a.71.71,0,0,1-.7.71Z" fill="#fff"/>
        <path id="Path_72" data-name="Path 72" d="M443.68,164.55h0a.71.71,0,0,1,.7-.7h3.31a.7.7,0,0,1,.7.7h0a.7.7,0,0,1-.7.7h-3.31a.7.7,0,0,1-.7-.7Z" fill="#fff"/>
        <path id="Path_73" data-name="Path 73" d="M456.33,390.27h0a.71.71,0,0,1-.7-.7v-3.31a.71.71,0,0,1,.7-.7h0a.7.7,0,0,1,.7.7v3.31a.7.7,0,0,1-.7.7Z" fill="#fff"/>
        <path id="Path_74" data-name="Path 74" d="M454,387.92h0a.7.7,0,0,1,.7-.71H458a.71.71,0,0,1,.7.71h0a.71.71,0,0,1-.7.7h-3.31A.7.7,0,0,1,454,387.92Z" fill="#fff"/>
        <path id="Path_75" data-name="Path 75" d="M255.67,54.18h0a.7.7,0,0,1-.7-.7V50.17a.71.71,0,0,1,.7-.7h0a.7.7,0,0,1,.7.7v3.31A.7.7,0,0,1,255.67,54.18Z" fill="#fff"/>
        <path id="Path_76" data-name="Path 76" d="M253.32,51.83h0a.7.7,0,0,1,.7-.71h3.31a.71.71,0,0,1,.7.71h0a.71.71,0,0,1-.7.7H254a.7.7,0,0,1-.68-.7Z" fill="#fff"/>
        <path id="Path_77" data-name="Path 77" d="M414.58,190.76h0a.7.7,0,0,1-.7-.7v-3.31a.71.71,0,0,1,.7-.7h0a.7.7,0,0,1,.7.7v3.31A.7.7,0,0,1,414.58,190.76Z" fill="#fff"/>
        <path id="Path_78" data-name="Path 78" d="M412.23,188.41h0a.7.7,0,0,1,.7-.7h3.31a.7.7,0,0,1,.7.7h0a.71.71,0,0,1-.7.7h-3.31a.7.7,0,0,1-.7-.7Z" fill="#fff"/>
        <path id="Path_79" data-name="Path 79" d="M337,438.72h0a.7.7,0,0,1-.7-.7v-3.3a.71.71,0,0,1,.7-.71h0a.71.71,0,0,1,.71.71V438a.7.7,0,0,1-.71.72Z" fill="#fff"/>
        <path id="Path_80" data-name="Path 80" d="M334.61,436.37h0a.7.7,0,0,1,.7-.7h3.31a.7.7,0,0,1,.7.7h0a.71.71,0,0,1-.7.7h-3.31a.7.7,0,0,1-.7-.7Z" fill="#fff"/>
        <path id="Path_81" data-name="Path 81" d="M458.69,281.05h0a.7.7,0,0,1-.7-.7V277a.7.7,0,0,1,.7-.7h0a.71.71,0,0,1,.7.7v3.31a.7.7,0,0,1-.7.74Z" fill="#fff"/>
        <path id="Path_82" data-name="Path 82" d="M456.33,278.7h0a.71.71,0,0,1,.7-.71h3.31a.7.7,0,0,1,.7.71h0a.7.7,0,0,1-.7.7H457a.71.71,0,0,1-.67-.7Z" fill="#fff"/>
        <path id="Path_83" data-name="Path 83" d="M83.11,92.64h0a.7.7,0,0,1-.7-.7v-3.3a.71.71,0,0,1,.7-.71h0a.7.7,0,0,1,.7.71v3.3A.7.7,0,0,1,83.11,92.64Z" fill="#fff"/>
        <rect id="Rectangle_7" data-name="Rectangle 7" width="4.71" height="1.4" rx="0.7" transform="translate(80.76 89.59)" fill="#fff"/>
        <path id="Path_84" data-name="Path 84" d="M422.18,431.84h0a.7.7,0,0,1-.7-.7v-3.31a.71.71,0,0,1,.7-.7h0a.7.7,0,0,1,.7.7v3.31a.7.7,0,0,1-.7.7Z" fill="#fff"/>
        <path id="Path_85" data-name="Path 85" d="M419.83,429.49h0a.7.7,0,0,1,.7-.71h3.31a.71.71,0,0,1,.7.71h0a.71.71,0,0,1-.7.7h-3.31A.7.7,0,0,1,419.83,429.49Z" fill="#fff"/>
        <path id="Path_86" data-name="Path 86" d="M306.83,193.44s-19,22-19.64,27.77,3.38,2,7.16.49a29.06,29.06,0,0,0,12.24-9.56C310.49,207,317.42,196.16,306.83,193.44Z" fill="#012045"/>
        <path id="Path_87" data-name="Path 87" d="M341.71,193.59s8.65,8.54,8.82,16.26,5.56,23.66,1,24.51-10.33-3.08-12.44-9.93S319.43,179.28,341.71,193.59Z" fill="#022654"/>
        <path id="Path_88" data-name="Path 88" d="M345.05,258.05s-1-37.44-2.61-42.25c-1.89-5.53-2.76-15-4.65-22.06-2.2-8.19-29.22-8.05-32.59,2.6s-.67,39.74-3.41,49.09S337.73,271.74,345.05,258.05Z" fill="#004fc6"/>
        <path id="Path_89" data-name="Path 89" d="M342.67,245s7.08,18.2-3,21.24-38,5.16-41-2.93,1.74-23.3,6.8-24.31S336.61,240,342.67,245Z" fill="#f08619"/>
        <path id="Path_90" data-name="Path 90" d="M332.6,267.65s-24.5-12.15-23.68-17.72-1.65-14.4,16.65-10.18,18.44,11.8,17.89,15.51S344.85,268.8,332.6,267.65Z" fill="#f09e4a"/>
        <path id="Path_91" data-name="Path 91" d="M304.53,290.05s-1,5.06-2,6.07-4.05,4.05-5.06,4.05-4,5.05-8.09,5.05-5.05-5.05-1-8.09S298.46,286,298.46,286,302.51,283,304.53,290.05Z" fill="#004fc6"/>
        <path id="Path_92" data-name="Path 92" d="M321.09,299a28.439,28.439,0,0,1,.43,5.85,88.343,88.343,0,0,0,.06,10.07c.11,1.29-1.52,4.9-6.95,3s-3.35-18.41-1.54-20.65S321.17,296.46,321.09,299Z" fill="#004fc6"/>
        <path id="Path_93" data-name="Path 93" d="M326.83,185.81s.34,5.68,0,6.2a7.11,7.11,0,0,1-9.24,0v-4.39S324.33,183,326.83,185.81Z" fill="#e3a881"/>
        <path id="Path_94" data-name="Path 94" d="M315.74,252.5s9.63-1.85,11.65,5.72-3,40.34-3,41.18-2,4.21-9.1,3.36-6.07-4.2-6.07-4.2,0-37,1-41.18S315.74,252.5,315.74,252.5Z" fill="#f08619"/>
        <path id="Path_95" data-name="Path 95" d="M314.56,238.64s-14.3-.65-14.3,5.41-5.11,42.66-5.11,42.66,6.07,6.06,9.1,3.79,12.14-34.88,14.16-37.16S319.61,240.1,314.56,238.64Z" fill="#fcc551"/>
        <path id="Path_96" data-name="Path 96" d="M345.05,254.65a37.189,37.189,0,0,0-8.7-4.27,39.143,39.143,0,0,0-4.73-1.09c-1.59-.36-3.15-.82-4.7-1.3l-4.64-1.49a37,37,0,0,0-4.65-1.31,3.8,3.8,0,0,0-.58-.06,1.09,1.09,0,0,0-.49.11,1,1,0,0,0-.67.78.59.59,0,0,1-.27.34,1.13,1.13,0,0,1-.36.11,2.139,2.139,0,0,0-.52.18,4.171,4.171,0,0,0-1,.62c-.27.23-.55.62-.37.72s0,0,.11.09a.28.28,0,0,1,.09.16.429.429,0,0,1,0,.11,1.833,1.833,0,0,1,0,.33,2.555,2.555,0,0,1-.05.62c-.08.82-.21,1.62-.33,2.43-1.16,6.4-2.65,12.72-4.28,19-.82,3.15-1.69,6.27-2.67,9.37-.5,1.55-1,3.08-1.62,4.6a20.322,20.322,0,0,1-2.15,4.36,21,21,0,0,0,2.05-4.4c.55-1.52,1.05-3.07,1.51-4.62,1-3.1,1.8-6.23,2.6-9.38,1.57-6.29,3-12.62,4.12-19,.14-.79.27-1.59.36-2.39v-.86h0c0,.11-.08-.07-.12-.11a.62.62,0,0,1-.17-.42.9.9,0,0,1,.13-.38,2.131,2.131,0,0,1,.44-.5,4.68,4.68,0,0,1,1.08-.68,2.82,2.82,0,0,1,.62-.2c.21,0,.29-.05.32-.19a1.71,1.71,0,0,1,2.17-1.07,39.55,39.55,0,0,1,4.7,1.36l4.62,1.53a47.708,47.708,0,0,0,4.67,1.33,39.721,39.721,0,0,1,4.74,1.12,37.441,37.441,0,0,1,8.74,4.45Z" fill="#fafff9"/>
        <path id="Path_97" data-name="Path 97" d="M349.28,225.75s-19.73-1.83-25.73.7S320.84,235.88,328,237s22.55.85,24.71-2.55S352.22,227,349.28,225.75Z" fill="#022b5f"/>
        <path id="Path_98" data-name="Path 98" d="M289.27,216.44c.19-.44,18.48-1.69,24,.15s2.92,4.42-3.1,6.4-19.06,5.32-21.43,3S287.45,220.56,289.27,216.44Z" fill="#022654"/>
        <path id="Path_99" data-name="Path 99" d="M321.15,232c2.86-.39,3.55-3.73,3.71-4.85,0,0-2.12-4.7-3.71-5s-4.43-1.45-5.34-1.66-1.22,1.42,0,2.44,3.34,1.42,2.73,2.53" fill="#f8c6a5"/>
        <path id="Path_100" data-name="Path 100" d="M318.33,225.77s.54-12.66-.67-13.88-19.46.76-20.83,1.67-.52,23.54.95,24.63,20.16,0,20.55-2.26S318.33,225.77,318.33,225.77Z" fill="#fff"/>
        <path id="Path_101" data-name="Path 101" d="M318.54,225.42c-.61,1.11-4.25-.71-6.69-.91s-.81,2.73-.5,3.75.4,2.94,1.52,3.44,5.42.67,8.28.29" fill="#f8c6a5"/>
        <path id="Path_102" data-name="Path 102" d="M333.44,176.81s-.32,9.16-7.64,11.54-8.82,2.42-11.15,1a10.08,10.08,0,0,1-4.51-7.57c-.13-3-1.67-18.87.71-21.84a17,17,0,0,1,12.08-6.74C328.68,152.84,338.39,156.6,333.44,176.81Z" fill="#f8c6a5"/>
        <path id="Path_103" data-name="Path 103" d="M323.73,171.22s-2.88,3-6,3-3.86-1.5-3.86-1.5-5.62.51-6.13-.48a5.13,5.13,0,0,1,0-2.87s-2.59-1.78-2-3.67,2.67-8.12,11.49-11c0,0-2.38-2.28-.3-2.58a4.74,4.74,0,0,1,3.57,1.06,3,3,0,0,1,3.17-1.85c2.47.2,2.28,1.85,2.28,1.85s5.44-1.26,6.34,1.22-.65,2.25-.65,2.25,4.71,4.59,4,10.23.35,11.69-3,13.47c0,0,1.75-6.22,1.25-7.08s-4.69-2.23-2.6,5.6c0,0-.9,2.58-2.18.89s-1.59-7.33-1.59-7.33S324.72,174.26,323.73,171.22Z" fill="#022654"/>
        <path id="Path_104" data-name="Path 104" d="M332.13,173.3s1.15-3,3.65-1c1.58,1.25.65,5.87-1,6.25a2.82,2.82,0,0,1-2.75-1.17" fill="#f8c6a5"/>
        <path id="Path_105" data-name="Path 105" d="M327.53,185" fill="#f8c6a5"/>
        <path id="Path_106" data-name="Path 106" d="M306.59,207.74a1.69,1.69,0,0,1-1.18-.49,4.06,4.06,0,0,0-5.75,0,1.68,1.68,0,0,1-2.37-2.37,7.43,7.43,0,0,1,10.49,0,1.68,1.68,0,0,1,0,2.37,1.72,1.72,0,0,1-1.19.49Z" fill="#fff"/>
        <path id="Path_107" data-name="Path 107" d="M310,203.53a1.67,1.67,0,0,1-1.19-.49,8.94,8.94,0,0,0-12.61,0,1.672,1.672,0,0,1-2.37-2.36,12.27,12.27,0,0,1,17.35,0,1.67,1.67,0,0,1-1.18,2.85Z" fill="#fff"/>
        <path id="Path_108" data-name="Path 108" d="M314.81,199.61a1.67,1.67,0,0,1-1.19-.49,15.68,15.68,0,0,0-22.17,0,1.68,1.68,0,0,1-2.37-2.37,19,19,0,0,1,26.91,0,1.68,1.68,0,0,1,0,2.37,1.65,1.65,0,0,1-1.18.49Z" fill="#fff"/>
        <ellipse id="Ellipse_3" data-name="Ellipse 3" cx="123.42" cy="8.23" rx="123.42" ry="8.23" transform="translate(37.74 441.49)" fill="#fff"/>
        <path id="Path_109" data-name="Path 109" d="M232.24,407.51s-3,18.5-5.08,20.47c0,0,26.15-.84,29.59.44s9.45,14.83,7.63,16-11-8.94-11-8.94-31.76,5.67-35.53,1.72-1.69-31.82-1.69-31.82S229,401.92,232.24,407.51Z" fill="#e0a880"/>
        <path id="Path_110" data-name="Path 110" d="M225.73,394s-12.74-4.19-23.35,2.19-20.16,19.22-36.87,24.06c0,0-8,20.13.84,27.21,0,0,52.14-5.5,61.6-21.36S236.69,398.84,225.73,394Z" fill="#e6eaf0"/>
        <path id="Path_111" data-name="Path 111" d="M116.13,447c-7-1-39-33.34-39-33.34s-10.06,5.68-15.23,8.45c-6.67,3.58-5-.1,3.36-10.39,6.12-7.53,9.56-11.77,11.69-8.9a35.268,35.268,0,0,0,4.76,5.1s8.85,4.42,17.22,8.38a45,45,0,0,1,11.48,8,177,177,0,0,1,8.27,21.38,3.6,3.6,0,0,1-2.55,1.32Z" fill="#e0a880"/>
        <path id="Path_112" data-name="Path 112" d="M172.41,422.21s-2.8-7-12.53-5.59a25.12,25.12,0,0,0-15,7.68s-16.88,7.93-22.63,9.85a45.37,45.37,0,0,0,4.12-16.92c.3-9.26.82-19.14.82-19.14A35,35,0,0,1,130,391.7c1.78-3.1-3.48-4.57-12.82-7.18-12.79-3.58-16.81-3.63-10.87,1.06,4.6,3.64,13.82,10.6,13.82,10.6s-16.94,42.25-15,49,51.65,7.42,64,1S172.41,422.21,172.41,422.21Z" fill="#f8c29c"/>
        <path id="Path_113" data-name="Path 113" d="M228.73,393.65s4.12-.2,4.38-3.07,2.55-20.8,18.42-17.44c14.1,3,13.77,15.9,13.77,18.56a12.6,12.6,0,0,1-.69,3.09,41.66,41.66,0,0,1-10.51,17.15,7.64,7.64,0,0,1-2.1,1.67c-1.6.43-6.44-2.53-11.08-6.36-3.7-3.06-7.54-.63-9.67-1.31S225.42,398,228.73,393.65Z" fill="#f8c29c"/>
        <path id="Path_114" data-name="Path 114" d="M305.53,418.17l-21.18,28.04H243.91" fill="none" stroke="#022b5f" stroke-linecap="round" stroke-miterlimit="10" stroke-width="5.54"/>
        <path id="Path_115" data-name="Path 115" d="M228.71,392.89l-3.23-.29s-1.15,9.24,1.14,12.65a13.09,13.09,0,0,0,6.2,4.68l.76-5.06S227.46,400.49,228.71,392.89Z" fill="#fff"/>
        <path id="Path_116" data-name="Path 116" d="M228.15,408.21s-.12,20.37-1.24,23c0,0,23.47-11.56,27.13-11.81s14.73,9.61,13.56,11.42-13.68-3.61-13.68-3.61-26.59,18.27-31.65,16.23-9.61-30.59-9.61-30.59S222.92,404.45,228.15,408.21Z" fill="#f8c29c"/>
        <path id="Path_117" data-name="Path 117" d="M228.15,408.21s-.09-14.51-8.44-14.21-8,13.42-7.05,18.89,3.84,23.28,6.11,28.71,13.85.45,17.5-1.83.43-11.66-1.49-12.31-5.36,2.06-5.36,2.06.19-1-.8-.58c0,0,0-2.38-.56-1.92C228.06,427,229.18,414.07,228.15,408.21Z" fill="#edf1f7"/>
        <path id="Path_118" data-name="Path 118" d="M231.31,428.29l-.06-.86,4.75-2.8s4.85,8.74,3,13.75a10.25,10.25,0,0,1-5.47,3.41l-.24-.46S235.56,432,231.31,428.29Z" fill="#edf1f7"/>
        <path id="Path_119" data-name="Path 119" d="M129.08,432.2a19.78,19.78,0,0,0-5.56-2.28c-2.41-.38-24.67-15.18-24.67-15.18L83,407.25s-5.56,4.46-5.44,8.38l29.61,26.82S130,438.53,129.08,432.2Z" fill="#f08619"/>
        <path id="Path_120" data-name="Path 120" d="M243.71,371s4.3-5.51,5.13-1.85c0,0-.39,1.57-.91,1.85,0,0,16.49,1.33,14.05,3.57s-.72,1.29-.72,1.29,9.72,7.28,8.14,8.71-3.14-.86-3.14-.86,4.57,8.43,1.86,10.43-9.28-4.86-9.28-4.86-2.15,2.14-3.72.43-2-1.74-2-1.74-2.57,4.31-4,4.31-2.86,4.57-4.15,4.14-1.27-2.28-1.27-2.28a49,49,0,0,0,2-5.14,3.53,3.53,0,0,0-3.57-3c-2.71,0-3.29,6.14-2.57,7.14s-4.76,1.68-6.86,1.71-1.92-3-1.92-3l1.92-8.61s-3-.71-1.16-2.71,5.81-5.28,5.81-5.28-2.24.59-1.8-.85,4.29-1.75,4.29-1.75S239,367.9,243.71,371Z" fill="#865021"/>
        <path id="Path_121" data-name="Path 121" d="M171.23,418.17s-6.22-3.05-10.64-2.67-14.39,4.62-15.57,7-21,10.75-21,10.75,3.43-9.75,2.91-13.17,1.39-20.35,1.39-20.35-6.32-2.15-10.5,0c0,0-15.49,37.27-12.74,45.52,0,0-1.8,5.22,26.53,5.28s40.49-1.9,43-4.28S180.62,437.17,171.23,418.17Z" fill="#f09e4a"/>
        <path id="Path_122" data-name="Path 122" d="M131,390.52a3.18,3.18,0,0,0-.43-3.11c-1.14-1.77-24.16-7.84-25.37-7.4s-1.82,2.34-1.82,2.34Z" fill="#e6eaf0"/>
        <path id="Path_123" data-name="Path 123" d="M127.7,396.71s-2.15-2.08-9.33-1.86c0,0-16.27-10.36-15-12.92s26.62,6.18,26.94,6.62a3,3,0,0,1,.31,3.42C129.72,393.87,128.52,396.77,127.7,396.71Z" fill="#022b5f"/>
        <path id="Path_124" data-name="Path 124" d="M108.4,387.23a6.3,6.3,0,0,1,3.93-.69,4.53,4.53,0,0,1,1,.42l.85.45,1.69.93a46.784,46.784,0,0,1,6.43,4.3,47.13,47.13,0,0,1-7-3.36l-1.66-1c-.56-.33-1.11-.73-1.55-.92a9,9,0,0,0-3.69-.13Z" fill="#fff"/>
        <path id="Path_125" data-name="Path 125" d="M76.78,401.52a3.16,3.16,0,0,0-3-.88c-2.09.31-17.12,18.77-17.21,20.05S58,423.31,58,423.31Z" fill="#e6eaf0"/>
        <path id="Path_126" data-name="Path 126" d="M81.07,407.06s-2.78,1.1-5.54,7.73c0,0-16.16,10.55-18,8.35s16.62-21.7,17.15-21.8A3,3,0,0,1,78,402.46C79.32,404.05,81.46,406.33,81.07,407.06Z" fill="#022b5f"/>
        <path id="Path_127" data-name="Path 127" d="M64.47,420.73a6.36,6.36,0,0,1,1-3.87,4.32,4.32,0,0,1,.81-.75l.76-.6,1.54-1.15a46,46,0,0,1,6.58-4.07,48.112,48.112,0,0,1-6,5L67.6,416.4c-.53.37-1.13.71-1.48,1a9.19,9.19,0,0,0-1.65,3.33Z" fill="#fff"/>
        <path id="Path_128" data-name="Path 128" d="M310,412.6a1.67,1.67,0,0,1-1.18-.49,4.08,4.08,0,0,0-5.75,0,1.672,1.672,0,0,1-2.36-2.37,7.42,7.42,0,0,1,10.48,0A1.68,1.68,0,0,1,310,412.6Z" fill="#fff"/>
        <path id="Path_129" data-name="Path 129" d="M313.41,408.4a1.72,1.72,0,0,1-1.19-.49,8.92,8.92,0,0,0-12.61,0,1.68,1.68,0,0,1-2.37-2.37,12.29,12.29,0,0,1,17.35,0,1.67,1.67,0,0,1,0,2.37,1.69,1.69,0,0,1-1.18.49Z" fill="#fff"/>
        <path id="Path_130" data-name="Path 130" d="M318.19,404.47A1.63,1.63,0,0,1,317,404a15.69,15.69,0,0,0-22.18,0,1.672,1.672,0,0,1-2.37-2.36,19,19,0,0,1,26.91,0,1.65,1.65,0,0,1,0,2.36,1.63,1.63,0,0,1-1.17.47Z" fill="#fff"/>
      </g>
    </g>
    <text id="Welcome_to_Maxx_Fibernet" data-name="Welcome to
Maxx Fibernet" transform="translate(31 469)" fill="#fff" font-size="40" font-family="SFProDisplay-Regular, SF Pro Display"><tspan x="0" y="0">Welcome to</tspan><tspan font-size="45" font-family="SFProDisplay-Bold, SF Pro Display" font-weight="700"><tspan x="0" y="53">Maxx Fibernet</tspan></tspan></text>
    <text id="We_are_the_best_Internet_Service_Provide_Company" data-name="We are the best Internet Service Provide Company" transform="translate(31 564)" fill="#fff" font-size="20" font-family="SFProDisplay-Regular, SF Pro Display"><tspan x="0" y="0">We are the best Internet Service Provide Company</tspan></text>
    <line id="Line_1" data-name="Line 1" x2="321" transform="translate(19.5 533.5)" fill="none" stroke="#fff" stroke-width="1"/>
    <line id="Line_2" data-name="Line 2" x2="133" transform="translate(109.5 533.5)" fill="none" stroke="#fff" stroke-width="5"/>
  </g>
</svg>
